<svg xmlns="http://www.w3.org/2000/svg" xmlns:xlink="http://www.w3.org/1999/xlink" width="60" height="60" viewBox="0 0 60 60">
  <defs>
    <style>
      .cls-1 {
        fill-rule: evenodd;
        filter: url(#filter);
      }
    </style>
    <filter id="filter" x="1180" y="1692" width="60" height="60" filterUnits="userSpaceOnUse">
      <feFlood result="flood" flood-color="#ff0"/>
      <feComposite result="composite" operator="in" in2="SourceGraphic"/>
      <feBlend result="blend" in2="SourceGraphic"/>
    </filter>
  </defs>
  <path id="icon" class="cls-1" d="M1230.59,1734.42l-7.3-1.74-8.13-8.15,6.26-6.26a13.53,13.53,0,0,0,16.77-18.47l-1.11-2.38-6.59,6.59-3.07-3.06,6.6-6.59-2.39-1.11a13.529,13.529,0,0,0-18.47,16.75l-2.47,2.47-18.17-18.19a7.139,7.139,0,0,0-5.09-2.11h-0.01a7.212,7.212,0,0,0-5.09,12.31l18.17,18.18-2.48,2.47a13.528,13.528,0,0,0-16.76,18.47l1.1,2.38,6.6-6.59,3.06,3.06-6.59,6.59,2.38,1.11a13.421,13.421,0,0,0,5.69,1.26,13.528,13.528,0,0,0,12.79-18.01l6.26-6.26,8.14,8.14,1.75,7.31,9.4,9.41,8.15-8.16Zm-13.6-24.75a9.841,9.841,0,0,1,10.4-13.89l-5.17,5.17,8.27,8.26,5.18-5.17a9.862,9.862,0,0,1-13.91,10.4l-1.16-.55-4.25,4.25-3.06-3.07,4.24-4.24Zm-33.1-10.29a3.536,3.536,0,0,1,6.03-2.5l23.83,23.86-4.99,4.99-23.83-23.85A3.561,3.561,0,0,1,1183.89,1699.38Zm16.6,45.47a9.881,9.881,0,0,1-8.43,2.77l5.17-5.17-8.27-8.26-5.18,5.17a9.862,9.862,0,0,1,13.91-10.4l1.16,0.55,4.25-4.24,3.06,3.06-4.24,4.24,0.54,1.17A9.859,9.859,0,0,1,1200.49,1744.85Zm25.28-4.13-0.93-3.89,3.88,0.93,6.07,6.08-2.95,2.95Z" transform="translate(-1180 -1692)"/>
</svg>
