<svg xmlns="http://www.w3.org/2000/svg" xmlns:xlink="http://www.w3.org/1999/xlink" width="60" height="60" viewBox="0 0 60 60">
  <defs>
    <style>
      .cls-1 {
        fill-rule: evenodd;
        filter: url(#filter);
      }
    </style>
    <filter id="filter" x="780" y="1692" width="60" height="60" filterUnits="userSpaceOnUse">
      <feFlood result="flood" flood-color="#ff0"/>
      <feComposite result="composite" operator="in" in2="SourceGraphic"/>
      <feBlend result="blend" in2="SourceGraphic"/>
    </filter>
  </defs>
  <path id="icon" class="cls-1" d="M838.556,1694.54l-0.3-.79-0.791-.3a22.518,22.518,0,0,0-23.857,5.13l-6.021,6.02-13.458.66-11.263,11.26,9.711,3.09-3.591,3.59,2.1,2.1-4.648,7.12,13.139,13.14,7.124-4.65,2.1,2.1,3.591-3.59,3.093,9.71,11.264-11.26,0.652-13.46,6.022-6.02A22.525,22.525,0,0,0,838.556,1694.54Zm-48.691,20.28,5.891-5.89,7.891-.38-8.088,8.08Zm10.21,25.94-8.84-8.84,2.556-3.91,10.2,10.2Zm23-4.52-5.891,5.89-1.814-5.69,8.087-8.09Zm-14.277,1.48-14.514-14.52,21.974-21.97a18.732,18.732,0,0,1,19.078-4.56,18.772,18.772,0,0,1-4.565,19.07Zm16.766-36.9a5.62,5.62,0,1,0,3.972,1.65A5.59,5.59,0,0,0,825.564,1700.82Zm1.324,6.94a1.869,1.869,0,0,1-2.648,0A1.873,1.873,0,1,1,826.888,1707.76ZM780,1738.89l4.245-4.24,2.648,2.64-4.245,4.25ZM793.108,1752l-2.648-2.65,4.245-4.25,2.648,2.65Zm-9.985-5.96,6.258-6.26,2.649,2.65-6.258,6.26Z" transform="translate(-780 -1692)"/>
</svg>
