<svg xmlns="http://www.w3.org/2000/svg" xmlns:xlink="http://www.w3.org/1999/xlink" width="60" height="58" viewBox="0 0 60 58">
  <defs>
    <style>
      .cls-1 {
        fill-rule: evenodd;
        filter: url(#filter);
      }
    </style>
    <filter id="filter" x="380" y="1692" width="60" height="58" filterUnits="userSpaceOnUse">
      <feFlood result="flood" flood-color="#ff0"/>
      <feComposite result="composite" operator="in" in2="SourceGraphic"/>
      <feBlend result="blend" in2="SourceGraphic"/>
    </filter>
  </defs>
  <path id="icon" class="cls-1" d="M439.343,1725.55a19.264,19.264,0,0,0-8.906-11.8c-0.453-.26-0.917-0.51-1.388-0.73,0.042-.53.065-1.06,0.065-1.6a19.116,19.116,0,1,0-38.228,0c0,0.54.023,1.07,0.065,1.6-0.471.22-.935,0.47-1.389,0.73a19.263,19.263,0,0,0-8.905,11.8,19.542,19.542,0,0,0,1.909,14.73,19.119,19.119,0,0,0,16.569,9.72,18.826,18.826,0,0,0,9.541-2.61c0.457-.26.9-0.55,1.324-0.85,0.426,0.3.867,0.59,1.324,0.85a18.825,18.825,0,0,0,9.54,2.61,19.116,19.116,0,0,0,16.569-9.72A19.547,19.547,0,0,0,439.343,1725.55ZM394.6,1711.42a15.4,15.4,0,1,1,30.806,0c0,0.1,0,.19,0,0.28a18.805,18.805,0,0,0-15.4,2.92,18.807,18.807,0,0,0-15.4-2.92C394.6,1711.61,394.6,1711.52,394.6,1711.42Zm15.4,30.23a15.848,15.848,0,0,1-4.516-11.35,19.154,19.154,0,0,0,9.032,0A15.852,15.852,0,0,1,410,1741.65Zm0-14.58a15.113,15.113,0,0,1-4-.53,15.613,15.613,0,0,1,1.543-3.79A15.421,15.421,0,0,1,410,1719.5a15.383,15.383,0,0,1,2.458,3.25,15.573,15.573,0,0,1,1.543,3.79A15.1,15.1,0,0,1,410,1727.07Zm-7.462-1.96a15.681,15.681,0,0,1-7.421-9.65,14.9,14.9,0,0,1,3.986-.54,15.208,15.208,0,0,1,7.952,2.25,19.172,19.172,0,0,0-2.727,3.69A19.653,19.653,0,0,0,402.538,1725.11Zm13.134-4.25a19.214,19.214,0,0,0-2.727-3.69,15.2,15.2,0,0,1,7.952-2.25,14.9,14.9,0,0,1,3.986.54,15.681,15.681,0,0,1-7.421,9.65A19.653,19.653,0,0,0,415.672,1720.86Zm-16.537,25.37a15.415,15.415,0,0,1-13.355-7.83,15.776,15.776,0,0,1-1.539-11.88,15.507,15.507,0,0,1,7.177-9.5c0.079-.05.159-0.09,0.238-0.14a19.417,19.417,0,0,0,10.177,12.1,19.738,19.738,0,0,0,5.222,15.01c-0.078.04-.155,0.09-0.234,0.14A15.249,15.249,0,0,1,399.135,1746.23Zm35.085-7.83a15.417,15.417,0,0,1-13.356,7.83,15.246,15.246,0,0,1-7.685-2.1c-0.079-.05-0.157-0.1-0.235-0.14a19.731,19.731,0,0,0,5.222-15.01,19.414,19.414,0,0,0,10.177-12.1c0.08,0.05.16,0.09,0.239,0.14a15.5,15.5,0,0,1,7.176,9.5A15.775,15.775,0,0,1,434.22,1738.4Z" transform="translate(-380 -1692)"/>
</svg>
